# xmcd
#
# Track frame offsets: 
#        150
#        14647
#        30915
#        47222
#        62162
#        77005
#        93262
#        114727
#        136577
#        152160
#        171250
#        204127
#
# Disc length: 2763 seconds
#
# Revision: 1
# Processed by: cddbd v1.5PL3 Copyright (c) Steve Scherf et al.
# Submitted via: ExactAudioCopy v0.90b4
#
DISCID=920ac90c
DTITLE=Brian McComas - Brian McComas
DYEAR=2003
DGENRE=Country
TTITLE0=99.9% Sure (I've Never Been Here Before)
TTITLE1=Come With Me
TTITLE2=Night Disappear With You
TTITLE3=You'd Have Never Said Goodbye
TTITLE4=Sixteen Again
TTITLE5=You're In My Head
TTITLE6=Baby Let Me Be Your Man
TTITLE7=Never Meant A Thing
TTITLE8=Straight To You
TTITLE9=I Could Never Love You Enough
TTITLE10=I'll Always Be There For You
TTITLE11=DATA
EXTD=
EXTT0=
EXTT1=
EXTT2=
EXTT3=
EXTT4=
EXTT5=
EXTT6=
EXTT7=
EXTT8=
EXTT9=
EXTT10=
EXTT11=
PLAYORDER=
